<svg width="44" height="44" viewBox="0 0 44 44" fill="none" xmlns="http://www.w3.org/2000/svg">
<path d="M13 15.792C13 15.5819 13.0862 15.3805 13.2396 15.2319C13.3931 15.0834 13.6012 15 13.8182 15H30.1818C30.3988 15 30.6069 15.0834 30.7604 15.2319C30.9138 15.3805 31 15.5819 31 15.792C31 16.002 30.9138 16.2035 30.7604 16.352C30.6069 16.5005 30.3988 16.584 30.1818 16.584H13.8182C13.6012 16.584 13.3931 16.5005 13.2396 16.352C13.0862 16.2035 13 16.002 13 15.792ZM13 21.6C13 21.3899 13.0862 21.1885 13.2396 21.0399C13.3931 20.8914 13.6012 20.808 13.8182 20.808H30.1818C30.3988 20.808 30.6069 20.8914 30.7604 21.0399C30.9138 21.1885 31 21.3899 31 21.6C31 21.81 30.9138 22.0115 30.7604 22.16C30.6069 22.3085 30.3988 22.392 30.1818 22.392H13.8182C13.6012 22.392 13.3931 22.3085 13.2396 22.16C13.0862 22.0115 13 21.81 13 21.6ZM13 27.408C13 27.1979 13.0862 26.9965 13.2396 26.8479C13.3931 26.6994 13.6012 26.616 13.8182 26.616H30.1818C30.3988 26.616 30.6069 26.6994 30.7604 26.8479C30.9138 26.9965 31 27.1979 31 27.408C31 27.618 30.9138 27.8195 30.7604 27.968C30.6069 28.1165 30.3988 28.2 30.1818 28.2H13.8182C13.6012 28.2 13.3931 28.1165 13.2396 27.968C13.0862 27.8195 13 27.618 13 27.408Z" fill="#333333"/>
</svg>
