<svg width="29" height="34" viewBox="0 0 29 34" fill="none" xmlns="http://www.w3.org/2000/svg">
<g clip-path="url(#clip0_630_503)">
<path fill-rule="evenodd" clip-rule="evenodd" d="M26.5575 12.615C26.295 12.615 26.085 12.825 26.085 13.0875V24.06L13.7475 32.25L1.4275 24.0425V4.1625L2.18 3.865C9.635 0.9425 17.8775 0.9425 25.35 3.865L26.3825 4.2675C26.6275 4.355 26.89 4.25 26.9775 4.005C27.065 3.76 26.96 3.4975 26.715 3.41L25.6825 3.0075C17.9825 -0.00250006 9.53 -0.00250006 1.83 3.0075L0.7975 3.41C0.6225 3.48 0.5 3.655 0.5 3.8475V24.2875C0.5 24.445 0.57 24.585 0.71 24.6725L13.5025 33.1775C13.5025 33.1775 13.6775 33.2475 13.765 33.2475C13.8525 33.2475 13.94 33.23 14.0275 33.1775L26.82 24.6725C26.9425 24.585 27.03 24.445 27.03 24.2875V13.07C27.03 12.8075 26.82 12.5975 26.5575 12.5975V12.615ZM14.3077 19.7552V6.61264C14.3077 6.35014 14.0977 6.14014 13.8352 6.14014C13.5727 6.14014 13.3627 6.35014 13.3627 6.61264V19.7552C13.3627 20.0177 13.5727 20.2277 13.8352 20.2277C14.0977 20.2277 14.3077 20.0177 14.3077 19.7552ZM13.8351 25.6514C12.8201 25.6514 11.9801 24.8114 11.9801 23.7964C11.9801 22.7814 12.8201 21.9414 13.8351 21.9414C14.8501 21.9414 15.6901 22.7814 15.6901 23.7964C15.6901 24.8114 14.8501 25.6514 13.8351 25.6514ZM14.7626 23.7964C14.7626 23.2889 14.3426 22.8689 13.8351 22.8689C13.3276 22.8689 12.9076 23.2889 12.9076 23.7964C12.9076 24.3039 13.3276 24.7239 13.8351 24.7239C14.3426 24.7239 14.7626 24.3039 14.7626 23.7964Z" fill="#212121"/>
</g>
<defs>
<clipPath id="clip0_630_503">
<rect width="28" height="33.25" fill="white" transform="translate(0.5 0.75)"/>
</clipPath>
</defs>
</svg>
