<svg width="31" height="30" viewBox="0 0 31 30" fill="none" xmlns="http://www.w3.org/2000/svg">
<g clip-path="url(#clip0_630_508)">
<path fill-rule="evenodd" clip-rule="evenodd" d="M19.5807 5.84369C19.6596 5.96369 19.7859 6.03869 19.928 6.03869V6.02368C19.9912 6.02368 20.0544 6.00869 20.1175 5.97868C20.307 5.88869 20.3859 5.66369 20.2754 5.48369L18.2623 2.01996C20.5513 2.56535 22.6442 3.67441 24.365 5.2428C26.9545 7.6278 28.4229 10.8228 28.4861 14.2578C28.5493 17.6928 27.2072 20.9328 24.6966 23.4078C22.7072 25.3578 20.165 26.6478 17.3545 27.1278C17.1493 27.1728 17.0072 27.3678 17.0387 27.5628C17.0703 27.7428 17.2282 27.8628 17.4177 27.8628L17.4493 27.8328H17.5124C20.4808 27.3228 23.165 25.9728 25.265 23.9028C27.9177 21.2928 29.3387 17.8578 29.2756 14.2278C29.2124 10.6128 27.665 7.2228 24.9177 4.7028C23.222 3.1539 21.1816 2.03491 18.9477 1.42196L22.5965 0.728688C22.8017 0.683688 22.9438 0.488688 22.8965 0.293688C22.8491 0.0986879 22.6438 -0.0363121 22.4386 0.00868789L17.3386 0.983688C17.228 1.01369 17.1333 1.08869 17.0702 1.19369C17.0141 1.28671 17.0078 1.3915 17.051 1.48721C17.0589 1.60742 17.1226 1.71524 17.2189 1.77959L19.5807 5.84369ZM7.20203 28.7046C7.23361 28.8846 7.40729 29.0046 7.58098 29.0046H7.64414L12.7441 28.0296C12.8547 27.9996 12.9652 27.9246 13.0126 27.8196C13.0757 27.7146 13.0757 27.5946 13.0126 27.4896L10.502 23.1696C10.4073 22.9896 10.1705 22.9146 9.98098 23.0196C9.7915 23.1096 9.71256 23.3346 9.82308 23.5146L11.8527 27.0069C9.48936 26.4785 7.32806 25.3518 5.55956 23.7401C0.206929 18.8201 0.0490357 10.675 5.22798 5.59003C7.21746 3.64004 9.75956 2.35003 12.5701 1.87004C12.7754 1.82504 12.9175 1.63004 12.8859 1.43503C12.8385 1.24003 12.649 1.10503 12.428 1.13503C9.45956 1.64504 6.77535 3.01003 4.67535 5.06503C-0.803596 10.45 -0.645701 19.0751 5.02272 24.2801C6.74335 25.8518 8.81901 26.9808 11.0916 27.5877L7.50203 28.2696C7.29677 28.3146 7.15466 28.5096 7.20203 28.7046Z" fill="#212121"/>
</g>
<defs>
<clipPath id="clip0_630_508">
<rect width="30" height="30" fill="white" transform="translate(0.666626)"/>
</clipPath>
</defs>
</svg>
