<svg width="31" height="30" viewBox="0 0 31 30" fill="none" xmlns="http://www.w3.org/2000/svg">
<g clip-path="url(#clip0_630_513)">
<path fill-rule="evenodd" clip-rule="evenodd" d="M27.4874 4.00029L14.9134 0.816666L10.0782 2.03705L21.3371 5.66395L27.4874 4.00029ZM19.9185 6.04767L9.16837 2.57127C9.04501 2.53602 8.9527 2.44385 8.91274 2.33119L2.3202 3.99513L14.9133 7.40157L19.9185 6.04767ZM0.738133 3.58008L14.8234 0.00666667C14.8234 0.00666667 14.9584 -0.00833333 15.0184 0.00666667L29.2083 3.59166C29.4183 3.65166 29.5533 3.86166 29.4933 4.07166V24.9516C29.4933 25.1316 29.3733 25.2966 29.1933 25.3416L15.0663 28.9107C15.0193 28.9296 14.9677 28.9401 14.9136 28.9401V28.9266C14.9136 28.9266 14.8383 28.9266 14.7933 28.9116L0.618313 24.6816C0.453313 24.6216 0.333313 24.4716 0.333313 24.2916V3.98157C0.333313 3.86157 0.393313 3.74157 0.483313 3.66657C0.561941 3.61041 0.64898 3.57948 0.738133 3.58008ZM28.7133 24.6366L15.3186 28.018V8.13033L28.7133 4.50657V24.6366ZM1.12831 4.50657L14.5086 8.13041V27.9911L1.12831 23.9916V4.50657Z" fill="#212121"/>
</g>
<defs>
<clipPath id="clip0_630_513">
<rect width="30" height="30" fill="white" transform="translate(0.333313)"/>
</clipPath>
</defs>
</svg>
