<svg width="30" height="30" viewBox="0 0 30 30" fill="none" xmlns="http://www.w3.org/2000/svg">
<g clip-path="url(#clip0_630_518)">
<path fill-rule="evenodd" clip-rule="evenodd" d="M14.3101 7.515C14.3101 7.74 14.4901 7.92 14.7151 7.92C14.9401 7.92 15.12 7.74 15.12 7.515V0.405C15.12 0.18 14.9401 0 14.7151 0C14.4901 0 14.3101 0.18 14.3101 0.405V7.515ZM14.3101 29.0104C14.3101 29.2354 14.4901 29.4155 14.7151 29.4155C14.9401 29.4155 15.12 29.2354 15.12 29.0104V21.8854C15.12 21.6604 14.9401 21.4804 14.7151 21.4804C14.4901 21.4804 14.3101 21.6604 14.3101 21.8854V29.0104ZM29.0252 15.1039H21.9002C21.6751 15.1039 21.4951 14.924 21.4951 14.6989C21.4951 14.474 21.6751 14.2939 21.9002 14.2939H29.0252C29.2501 14.2939 29.4301 14.474 29.4301 14.6989C29.4301 14.924 29.2501 15.1039 29.0252 15.1039ZM0.405 15.1039H7.515C7.74 15.1039 7.92 14.924 7.92 14.6989C7.92 14.474 7.74 14.2939 7.515 14.2939H0.405C0.18 14.2939 0 14.474 0 14.6989C0 14.924 0.18 15.1039 0.405 15.1039ZM19.7847 10.0199L19.7772 10.0198C19.8797 10.0177 19.9815 9.97309 20.0547 9.89988L25.0947 4.85988C25.2447 4.70988 25.2447 4.45488 25.0947 4.30488C24.9447 4.15488 24.6897 4.15488 24.5397 4.30488L19.4997 9.34488C19.3497 9.49488 19.3497 9.74988 19.4997 9.89988C19.5729 9.97309 19.6747 10.0177 19.7772 10.0198L19.7697 10.0199H19.7847ZM4.58238 25.2307H4.58988H4.57488H4.58238ZM4.85988 25.1107C4.78666 25.1841 4.68488 25.2286 4.58238 25.2307C4.4799 25.2286 4.3781 25.1841 4.30488 25.1107C4.15488 24.9607 4.15488 24.7058 4.30488 24.5558L9.34488 19.5158C9.49488 19.3657 9.74988 19.3657 9.89988 19.5158C10.0499 19.6658 10.0499 19.9207 9.89988 20.0707L4.85988 25.1107ZM24.8247 25.2307H24.8172C24.9196 25.2286 25.0215 25.1841 25.0947 25.1107C25.2447 24.9607 25.2447 24.7058 25.0947 24.5558L20.0547 19.5158C19.9047 19.3657 19.6497 19.3657 19.4997 19.5158C19.3497 19.6658 19.3497 19.9207 19.4997 20.0707L24.5397 25.1107C24.6129 25.1841 24.7148 25.2286 24.8172 25.2307H24.8097H24.8247ZM9.34488 9.89954C9.41988 9.97453 9.52488 10.0195 9.62988 10.0195L9.61488 10.0345C9.71988 10.0345 9.82488 9.98954 9.89988 9.91454C10.0499 9.76453 10.0499 9.50953 9.89988 9.35954L4.85988 4.31953C4.70988 4.16953 4.45488 4.16953 4.30488 4.31953C4.15488 4.46953 4.15488 4.72453 4.30488 4.87454L9.34488 9.89954Z" fill="#212121"/>
</g>
<defs>
<clipPath id="clip0_630_518">
<rect width="30" height="30" fill="white"/>
</clipPath>
</defs>
</svg>
